<?xml version="1.0" encoding="UTF-8"?>
<svg id="Layer_2" data-name="Layer 2" xmlns="http://www.w3.org/2000/svg" width="181.24" height="70" viewBox="0 0 181.24 70">
  <defs>
    <style>
      .cls-1 {
        fill: #d4ff2d;
      }

      .cls-2 {
        fill: #fff;
      }

      .cls-3 {
        fill: #08080a;
      }
    </style>
  </defs>
  <g id="Layer_1-2" data-name="Layer 1">
    <g>
      <g>
        <circle class="cls-1" cx="35" cy="35" r="35"/>
        <g>
          <path class="cls-3" d="M21.92,35.07c0-8.17,6.22-12.84,13.59-12.84,3.96,0,6.87,1.6,8.88,3.56l-2.06,2.66c-2.01-1.7-4.11-2.76-6.67-2.76-5.62,0-9.48,3.76-9.48,9.38s3.81,9.28,9.38,9.28c3.01,0,5.52-1.35,7.52-3.06l1.85,2.71c-2.71,2.41-6.07,3.81-9.68,3.81-7.62,0-13.34-4.66-13.34-12.74Z"/>
          <path class="cls-3" d="M49.4,48.82h11.24v1.66h-11.24v-1.66Z"/>
        </g>
      </g>
      <g>
        <path class="cls-2" d="M84.7,47.21c-1.41,0-2.38-.94-2.38-2.35s.98-2.38,2.4-2.38c.65,0,1.18.27,1.69.7l.52-.67c-.51-.5-1.25-.9-2.25-.9-1.87,0-3.45,1.18-3.45,3.26s1.45,3.23,3.38,3.23c.92,0,1.77-.36,2.45-.97l-.47-.69c-.51.43-1.14.78-1.91.78Z"/>
        <path class="cls-2" d="M91.9,41.6c-1.08,0-2.12.48-2.76.89l.42.71c.57-.36,1.36-.74,2.16-.74,1.2,0,1.6.71,1.64,1.55-3.19.25-4.49.93-4.49,2.32,0,1.11.95,1.76,2.11,1.76.86,0,1.76-.46,2.43-.99h.04l.09.84h.88v-3.79c0-1.54-.83-2.54-2.52-2.54ZM93.37,46.32c-.71.58-1.4.92-2.1.92s-1.35-.28-1.35-.98c0-.81.8-1.34,3.45-1.54v1.6Z"/>
        <path class="cls-2" d="M98.35,43.22h-.03l-.1-1.46h-.88v6.18h1.06v-3.61c.74-1.3,1.62-1.77,2.54-1.77.48,0,.71.06,1.14.2l.24-.9c-.38-.19-.76-.25-1.22-.25-1.15,0-2.11.61-2.76,1.62Z"/>
        <path class="cls-2" d="M107.15,41.6c-1.65,0-3.16,1.22-3.16,3.23s1.48,3.26,3.33,3.26c.99,0,1.78-.33,2.39-.74l-.38-.69c-.56.36-1.15.59-1.88.59-1.28,0-2.26-.72-2.39-2.11h4.86c.03-.17.05-.39.05-.64,0-1.74-1.04-2.9-2.82-2.9ZM107.18,42.43c1.05,0,1.74.63,1.84,1.9h-3.93c.19-1.22,1.08-1.9,2.1-1.9Z"/>
        <rect class="cls-2" x="111.53" y="48.82" width="6.11" height=".9"/>
        <path class="cls-2" d="M125.24,47.72l-.27-.79c-.42.19-.8.28-1.16.28-.74,0-1.22-.38-1.22-1.27v-7.06h-3.24v.85h2.19v6.13c0,1.46.73,2.23,2.05,2.23.67,0,1.08-.13,1.65-.37Z"/>
        <path class="cls-2" d="M130.24,48.09c.99,0,1.78-.33,2.39-.74l-.38-.69c-.56.36-1.15.59-1.88.59-1.28,0-2.26-.72-2.39-2.11h4.86c.03-.17.05-.39.05-.64,0-1.74-1.04-2.9-2.82-2.9-1.65,0-3.16,1.22-3.16,3.23s1.48,3.26,3.33,3.26ZM130.09,42.43c1.05,0,1.74.63,1.84,1.9h-3.93c.19-1.22,1.08-1.9,2.1-1.9Z"/>
        <path class="cls-2" d="M140.37,46.25c0-.95-.5-1.46-2.54-1.91-1.27-.27-1.81-.5-1.81-1.03,0-.47.38-.89,1.43-.89.79,0,1.5.25,2.07.65l.51-.67c-.61-.42-1.55-.79-2.49-.79-1.69,0-2.57.76-2.57,1.76,0,.93.8,1.48,2.42,1.81,1.68.34,1.92.67,1.92,1.15,0,.52-.51.95-1.55.95-1.13,0-1.97-.33-2.68-.84l-.48.7c.75.52,1.83.97,3.04.97,1.77,0,2.75-.84,2.75-1.84Z"/>
        <path class="cls-2" d="M145.39,47.27c-1.13,0-1.97-.33-2.68-.84l-.48.7c.75.52,1.83.97,3.04.97,1.77,0,2.75-.84,2.75-1.84s-.5-1.46-2.55-1.91c-1.27-.27-1.81-.5-1.81-1.03,0-.47.38-.89,1.42-.89.79,0,1.5.25,2.07.65l.51-.67c-.61-.42-1.55-.79-2.49-.79-1.69,0-2.57.76-2.57,1.76,0,.93.8,1.48,2.42,1.81,1.68.34,1.92.67,1.92,1.15,0,.52-.51.95-1.55.95Z"/>
        <path class="cls-2" d="M163.46,44.75c0-1.91-.9-3.14-2.57-3.14-.73,0-1.51.37-2.07.94h-.04l.05-1.2v-2.47h-1.06v9.06h.84l.1-.69h.04c.57.52,1.31.84,1.92.84,1.46,0,2.79-1.23,2.79-3.35ZM158.83,46.49v-3.08c.62-.64,1.26-.92,1.81-.92,1.23,0,1.74.9,1.74,2.26,0,1.53-.81,2.44-1.88,2.44-.45,0-1.09-.19-1.67-.71Z"/>
        <path class="cls-2" d="M171.25,41.76h-1.02l-1.34,3.41c-.2.56-.45,1.21-.66,1.79h-.05c-.25-.6-.52-1.25-.76-1.79l-1.5-3.41h-1.07l2.87,6.2-.18.46c-.31.76-.83,1.31-1.69,1.31-.19,0-.39-.04-.56-.09l-.22.84c.22.08.52.13.81.13,1.41,0,2.16-.93,2.62-2.15l2.73-6.69Z"/>
        <path class="cls-2" d="M125.57,57.15c-1.41,0-2.38-.94-2.38-2.35s.98-2.38,2.4-2.38c.65,0,1.18.27,1.69.7l.52-.67c-.51-.5-1.25-.9-2.25-.9-1.87,0-3.45,1.18-3.45,3.26s1.45,3.23,3.38,3.23c.92,0,1.77-.36,2.45-.97l-.47-.69c-.51.43-1.14.78-1.91.78Z"/>
        <path class="cls-2" d="M132.77,51.54c-1.08,0-2.12.48-2.76.89l.42.71c.57-.36,1.36-.74,2.16-.74,1.2,0,1.6.71,1.64,1.55-3.19.25-4.49.93-4.49,2.32,0,1.11.95,1.76,2.11,1.76.87,0,1.76-.46,2.43-.99h.04l.09.84h.88v-3.79c0-1.54-.83-2.54-2.52-2.54ZM134.23,56.26c-.71.58-1.4.92-2.1.92s-1.35-.28-1.35-.98c0-.81.8-1.34,3.45-1.54v1.6Z"/>
        <path class="cls-2" d="M139.21,53.15h-.02l-.1-1.46h-.88v6.18h1.06v-3.61c.74-1.3,1.62-1.77,2.55-1.77.48,0,.71.06,1.14.2l.24-.9c-.38-.19-.76-.25-1.22-.25-1.14,0-2.11.61-2.76,1.62Z"/>
        <path class="cls-2" d="M148.02,51.54c-1.65,0-3.16,1.22-3.16,3.23s1.48,3.26,3.33,3.26c.99,0,1.78-.33,2.39-.74l-.38-.69c-.56.36-1.14.59-1.88.59-1.28,0-2.26-.72-2.39-2.11h4.86c.02-.17.05-.39.05-.64,0-1.74-1.04-2.9-2.82-2.9ZM148.05,52.37c1.05,0,1.74.63,1.84,1.9h-3.93c.19-1.22,1.08-1.9,2.09-1.9Z"/>
        <path class="cls-2" d="M157.04,57.15c-.74,0-1.22-.38-1.22-1.27v-7.06h-6.11v.9h5.05v6.08c0,1.46.73,2.23,2.05,2.23.67,0,1.08-.13,1.65-.37l-.27-.79c-.42.19-.8.28-1.16.28Z"/>
        <path class="cls-2" d="M163.29,51.54c-1.65,0-3.16,1.22-3.16,3.23s1.48,3.26,3.33,3.26c.99,0,1.78-.33,2.39-.74l-.38-.69c-.56.36-1.14.59-1.88.59-1.28,0-2.26-.72-2.39-2.11h4.86c.03-.17.05-.39.05-.64,0-1.74-1.04-2.9-2.82-2.9ZM163.32,52.37c1.05,0,1.74.63,1.84,1.9h-3.93c.19-1.22,1.08-1.9,2.1-1.9Z"/>
        <path class="cls-2" d="M171.06,54.27c-1.27-.27-1.81-.5-1.81-1.03,0-.47.38-.89,1.43-.89.79,0,1.5.25,2.07.65l.51-.67c-.61-.42-1.55-.79-2.49-.79-1.69,0-2.57.76-2.57,1.76,0,.93.8,1.48,2.42,1.81,1.68.34,1.92.67,1.92,1.15,0,.52-.51.95-1.55.95-1.13,0-1.97-.33-2.68-.84l-.48.7c.75.52,1.83.97,3.04.97,1.77,0,2.75-.84,2.75-1.84s-.5-1.46-2.55-1.91Z"/>
        <path class="cls-2" d="M178.69,54.27c-1.27-.27-1.81-.5-1.81-1.03,0-.47.38-.89,1.43-.89.79,0,1.5.25,2.07.65l.51-.67c-.61-.42-1.55-.79-2.49-.79-1.69,0-2.57.76-2.57,1.76,0,.93.8,1.48,2.42,1.81,1.68.34,1.92.67,1.92,1.15,0,.52-.51.95-1.55.95-1.13,0-1.97-.33-2.68-.84l-.48.7c.75.52,1.83.97,3.04.97,1.77,0,2.75-.84,2.75-1.84s-.5-1.46-2.55-1.91Z"/>
      </g>
    </g>
  </g>
</svg>